<?xml version="1.0" encoding="UTF-8" standalone="no"?>
<svg
   height="16"
   viewBox="0 0 16 16"
   width="16"
   version="1.1"
   id="svg1"
   xml:space="preserve"
   xmlns="http://www.w3.org/2000/svg"
   xmlns:svg="http://www.w3.org/2000/svg"><defs
     id="defs1" /><path
     d="m 4.9449819,4.9453973 h 0.7636506 0.023864 c 0.1938955,0.00895 0.3907746,0.098439 0.5250099,0.2386409 l 1.742078,1.742078 1.7659421,-1.742078 C 9.9683716,5.0080403 10.10559,4.951363 10.290537,4.9453973 h 0.763651 V 5.709048 c 0,0.2177596 -0.02685,0.4206043 -0.190914,0.572738 L 9.1211964,8.0238641 10.83941,9.7420781 c 0.143185,0.1431842 0.214778,0.3460299 0.214778,0.5488739 v 0.763651 h -0.763651 c -0.202846,0 -0.4056899,-0.07159 -0.5488743,-0.214777 L 7.9995846,9.0977478 6.2575065,10.839826 C 6.114322,10.98301 5.9114772,11.054603 5.7086325,11.054603 H 4.9449819 v -0.763651 c 0,-0.202844 0.071592,-0.4056897 0.2147767,-0.5488739 L 6.9018367,8.0238641 5.1597586,6.281786 C 4.9986757,6.1326359 4.9270834,5.9238247 4.9449819,5.709048 Z m 0,0"
     fill="#75858a"
     id="path1"
     style="display:inline;stroke-width:0.763651" /></svg>
