<?xml version="1.0" encoding="UTF-8" standalone="no"?>
<svg
   height="16"
   viewBox="0 0 16 16"
   width="16"
   version="1.1"
   id="svg1"
   xml:space="preserve"
   xmlns="http://www.w3.org/2000/svg"
   xmlns:svg="http://www.w3.org/2000/svg"><defs
     id="defs1" /><path
     d="m 4.6108369,4.0459765 c -0.3133213,0 -0.5648604,0.2515391 -0.5648604,0.5648604 V 6.870279 c 0,0.3133213 0.2515391,0.5648605 0.5648604,0.5648605 H 6.870279 c 0.3133213,0 0.5648605,-0.2515392 0.5648605,-0.5648605 V 4.6108369 c 0,-0.3133213 -0.2515392,-0.5648604 -0.5648605,-0.5648604 z m 4.5188841,0 c -0.3133214,0 -0.5648606,0.2515391 -0.5648606,0.5648604 V 6.870279 c 0,0.3133213 0.2515392,0.5648605 0.5648606,0.5648605 h 2.259442 c 0.313321,0 0.56486,-0.2515392 0.56486,-0.5648605 V 4.6108369 c 0,-0.3133213 -0.251539,-0.5648604 -0.56486,-0.5648604 z M 4.6108369,8.5648604 c -0.3133213,0 -0.5648604,0.2515392 -0.5648604,0.5648606 v 2.259442 c 0,0.313321 0.2515391,0.56486 0.5648604,0.56486 H 6.870279 c 0.3133213,0 0.5648605,-0.251539 0.5648605,-0.56486 V 9.129721 c 0,-0.3133214 -0.2515392,-0.5648606 -0.5648605,-0.5648606 z m 4.5188841,0 c -0.3133214,0 -0.5648606,0.2515392 -0.5648606,0.5648606 v 2.259442 c 0,0.313321 0.2515392,0.56486 0.5648606,0.56486 h 2.259442 c 0.313321,0 0.56486,-0.251539 0.56486,-0.56486 V 9.129721 c 0,-0.3133214 -0.251539,-0.5648606 -0.56486,-0.5648606 z m 0,0"
     fill="#75858a"
     id="path1-2"
     style="display:inline;stroke-width:0.564861" /></svg>
