<?xml version="1.0" encoding="UTF-8" standalone="no"?>
<svg
   height="16"
   viewBox="0 0 16 16"
   width="16"
   version="1.1"
   id="svg1"
   xml:space="preserve"
   xmlns="http://www.w3.org/2000/svg"
   xmlns:svg="http://www.w3.org/2000/svg"><defs
     id="defs1" /><path
     d="m 6.6442276,4.6105691 c -0.3760153,0 -0.6778861,0.3036365 -0.6778861,0.6778862 0,0.3742496 0.3018708,0.6778862 0.6778861,0.6778862 0.3742497,0 0.6778862,-0.3036366 0.6778862,-0.6778862 0,-0.3742497 -0.3036365,-0.6778862 -0.6778862,-0.6778862 z m 2.7115448,0 c -0.3760154,0 -0.6778862,0.3036365 -0.6778862,0.6778862 0,0.3742496 0.3018708,0.6778862 0.6778862,0.6778862 0.3742496,0 0.6778866,-0.3036366 0.6778866,-0.6778862 0,-0.3742497 -0.303637,-0.6778862 -0.6778866,-0.6778862 z M 6.6442276,7.3221138 C 6.2682123,7.3221138 5.9663415,7.6257503 5.9663415,8 c 0,0.3742497 0.3018708,0.6778862 0.6778861,0.6778862 0.3742497,0 0.6778862,-0.3036365 0.6778862,-0.6778862 0,-0.3742497 -0.3036365,-0.6778862 -0.6778862,-0.6778862 z m 2.7115448,0 C 8.979757,7.3221138 8.6778862,7.6257503 8.6778862,8 c 0,0.3742497 0.3018708,0.6778862 0.6778862,0.6778862 0.3742496,0 0.6778866,-0.3036365 0.6778866,-0.6778862 0,-0.3742497 -0.303637,-0.6778862 -0.6778866,-0.6778862 z M 6.6442276,10.033659 c -0.3760153,0 -0.6778861,0.303636 -0.6778861,0.677886 0,0.374249 0.3018708,0.677886 0.6778861,0.677886 0.3742497,0 0.6778862,-0.303637 0.6778862,-0.677886 0,-0.37425 -0.3036365,-0.677886 -0.6778862,-0.677886 z m 2.7115448,0 c -0.3760154,0 -0.6778862,0.303636 -0.6778862,0.677886 0,0.374249 0.3018708,0.677886 0.6778862,0.677886 0.3742496,0 0.6778866,-0.303637 0.6778866,-0.677886 0,-0.37425 -0.303637,-0.677886 -0.6778866,-0.677886 z m 0,0"
     fill="#9fa9ad"
     id="path1-20"
     style="display:inline;stroke-width:0.451924" /></svg>
