<?xml version="1.0" encoding="UTF-8" standalone="no"?>
<!-- Uploaded to: SVG Repo, www.svgrepo.com, Generator: SVG Repo Mixer Tools -->

<svg
   width="800"
   height="800"
   viewBox="0 0 24 24"
   fill="none"
   version="1.1"
   id="svg1"
   xml:space="preserve"
   xmlns="http://www.w3.org/2000/svg"
   xmlns:svg="http://www.w3.org/2000/svg"><defs
     id="defs1" /><path
     fill-rule="evenodd"
     clip-rule="evenodd"
     d="M 5.9999999,6.5454547 6.5454544,5.9999999 h 4.3636366 l 0.545454,0.5454548 v 4.3636363 l -0.545454,0.545454 H 6.5454544 L 5.9999999,10.909091 Z M 7.090909,7.0909092 v 3.2727268 h 3.272728 V 7.0909092 Z m 5.454546,-0.5454545 0.545453,-0.5454548 h 4.363637 L 18,6.5454547 v 4.3636363 l -0.545455,0.545454 h -4.363637 l -0.545453,-0.545454 z m 1.090908,0.5454545 v 3.2727268 h 3.272728 V 7.0909092 Z M 5.9999999,13.09091 6.5454544,12.545456 h 4.3636366 l 0.545454,0.545454 v 4.363635 L 10.909091,18 H 6.5454544 L 5.9999999,17.454545 Z m 1.0909091,0.545454 v 3.272728 h 3.272728 v -3.272728 z m 5.454546,-0.545454 0.545453,-0.545454 h 4.363637 L 18,13.09091 v 4.363635 L 17.454545,18 h -4.363637 l -0.545453,-0.545455 z m 1.090908,0.545454 v 3.272728 h 3.272728 v -3.272728 z"
     fill="#e6e6e6"
     id="path1-54"
     style="stroke-width:0.727273" /></svg>
