<?xml version="1.0" encoding="UTF-8" standalone="no"?>
<!-- Uploaded to: SVG Repo, www.svgrepo.com, Generator: SVG Repo Mixer Tools -->

<svg
   width="800"
   height="800"
   viewBox="0 0 24 24"
   fill="none"
   version="1.1"
   id="svg1"
   xml:space="preserve"
   xmlns="http://www.w3.org/2000/svg"
   xmlns:svg="http://www.w3.org/2000/svg"><defs
     id="defs1" /><g
     style="display:none;fill:none"
     id="g4"
     transform="matrix(1.0859302,0,0,1.0859442,-1.0311621,-1.0314011)"><path
       fill-rule="evenodd"
       clip-rule="evenodd"
       d="M 10.9393,12 6.9696,15.9697 8.03026,17.0304 12,13.0607 15.9697,17.0304 17.0304,15.9697 13.0607,12 17.0303,8.03039 15.9696,6.96973 12,10.9393 8.03038,6.96973 6.96972,8.03039 Z"
       fill="#e6e6e6"
       id="path1-6" /></g><g
     style="display:none;fill:none"
     id="g5"
     transform="matrix(0.80000002,0,0,0.80000001,2.3999998,2.3999999)"><path
       fill-rule="evenodd"
       clip-rule="evenodd"
       d="M 18,6 H 6 V 18 H 18 Z M 4.5,4.5 v 15 h 15 v -15 z"
       fill="#e6e6e6"
       id="path1-61" /></g><g
     style="display:none;fill:none"
     id="g6"
     transform="matrix(0.65822243,0,0,0.80280823,4.1013046,1.7942723)"><path
       fill-rule="evenodd"
       clip-rule="evenodd"
       d="m 21.1155,9.75022 -2.9546,1.46228 2.9546,1.4623 -3.0308,1.5 3.0308,1.5 L 12,20.1863 2.88458,15.6748 l 3.03077,-1.5 -3.03077,-1.5 L 5.8392,11.2125 2.88458,9.75022 12,5.23877 Z M 7.60618,15.0117 6.26623,15.6748 12,18.5126 17.7338,15.6748 16.3939,15.0117 12,17.1863 Z M 12,14.2617 16.47,12.0494 17.7338,12.6748 12,15.5126 6.26623,12.6748 7.53002,12.0494 Z M 12,6.91243 6.26623,9.75022 12,12.588 17.7338,9.75022 Z"
       fill="#e6e6e6"
       id="path1-20" /></g><g
     style="display:none;fill:none"
     id="g7"><path
       fill-rule="evenodd"
       clip-rule="evenodd"
       d="M 6.00001,11.25 H 18 v 1.5 H 6.00001 Z"
       fill="#e6e6e6"
       id="path1-5" /></g><g
     style="display:none;fill:none"
     id="g8"><path
       fill-rule="evenodd"
       clip-rule="evenodd"
       d="M 11.25,12.75 V 18 h 1.5 V 12.75 H 18 v -1.5 H 12.75 V 6 h -1.5 v 5.25 H 6 v 1.5 z"
       fill="#e6e6e6"
       id="path1-8" /></g><g
     style="display:none;fill:none"
     id="g9"
     transform="matrix(0.80000003,0,0,0.69565218,2.3999997,3.3913043)"><path
       fill-rule="evenodd"
       clip-rule="evenodd"
       d="M 19.5,16.5 V 4.5 L 18.75,3.75 H 9 L 8.25,4.5 v 3 h -3 L 4.5,8.25 v 12 L 5.25,21 H 15 l 0.75,-0.75 v -3 h 3 z M 15.75,15.75 V 8.25 L 15,7.5 H 9.75 V 5.25 H 18 v 10.5 z M 6,9 h 8.25 V 19.5 H 6 Z"
       fill="#e6e6e6"
       id="path1-612" /></g><g
     style="display:none;fill:none"
     id="g10"
     transform="matrix(1.1428572,0,0,0.85310888,-1.7142861,1.5211783)"><path
       fill-rule="evenodd"
       clip-rule="evenodd"
       d="M 6.75,6 7.5,5.25 h 9 L 17.25,6 V 19.3162 L 12,16.2051 6.75,19.3162 Z m 1.5,0.75 v 9.9338 L 12,14.4615 15.75,16.6838 V 6.75 Z"
       fill="#e6e6e6"
       id="path1-9" /></g><g
     style="display:none;fill:none"
     id="g11"
     transform="matrix(0.91878903,0,0,0.96885093,0.97447186,0.63073778)"><path
       fill-rule="evenodd"
       clip-rule="evenodd"
       d="M 12.0001,10.0606 6.53039,15.5303 5.46973,14.4696 12.0001,7.93928 18.5304,14.4696 17.4697,15.5303 Z"
       fill="#e6e6e6"
       id="path1-4" /></g><g
     style="display:none;fill:none"
     id="g12"
     transform="matrix(0.91878761,0,0,0.96885732,0.97458998,0.11675672)"><path
       fill-rule="evenodd"
       clip-rule="evenodd"
       d="M 11.9999,13.9394 17.4696,8.46973 18.5303,9.53039 11.9999,16.0607 5.46961,9.53039 6.53027,8.46973 Z"
       fill="#e6e6e6"
       id="path1-610" /></g><g
     style="display:inline;fill:none"
     id="g13"
     transform="translate(0.03,-0.18)"><path
       fill-rule="evenodd"
       clip-rule="evenodd"
       d="M 17.97,8.442857 H 6.0299998 V 7.0199998 H 17.97 Z"
       fill="#e6e6e6"
       id="path1"
       style="stroke-width:0.868944" /><path
       fill-rule="evenodd"
       clip-rule="evenodd"
       d="M 17.97,12.711429 H 6.0299998 V 11.288571 H 17.97 Z"
       fill="#e6e6e6"
       id="path2"
       style="stroke-width:0.868944" /><path
       fill-rule="evenodd"
       clip-rule="evenodd"
       d="M 17.97,16.98 H 6.0299998 V 15.557143 H 17.97 Z"
       fill="#e6e6e6"
       id="path3"
       style="stroke-width:0.868944" /></g></svg>
